<?xml version="1.0" standalone="no"?>
<!DOCTYPE svg PUBLIC "-//W3C//DTD SVG 20010904//EN"
 "http://www.w3.org/TR/2001/REC-SVG-20010904/DTD/svg10.dtd">
<svg version="1.0" xmlns="http://www.w3.org/2000/svg"
 width="600.000000pt" height="400.000000pt" viewBox="0 0 600.000000 400.000000"
 preserveAspectRatio="xMidYMid meet">
<g transform="translate(0.000000,400.000000) scale(0.100000,-0.100000)"
fill="#000000" stroke="none">
<path d="M2053 3433 c-61 -21 -136 -92 -164 -155 -21 -48 -24 -69 -27 -243
l-3 -190 -39 -60 c-54 -84 -114 -214 -146 -320 -27 -86 -28 -100 -28 -300 -1
-193 1 -217 23 -295 41 -143 99 -269 163 -351 15 -20 37 -66 48 -101 68 -220
342 -456 648 -558 231 -76 511 -80 720 -10 39 13 62 16 90 9 62 -14 229 -10
296 7 181 47 326 177 388 350 30 85 36 239 13 338 l-18 76 32 81 c61 153 74
219 78 400 6 198 -9 294 -68 446 -102 262 -306 491 -563 632 -66 37 -77 47
-100 96 -33 66 -100 128 -163 149 -68 23 -1115 22 -1180 -1z m1173 -22 c60
-16 128 -80 155 -146 21 -51 29 -59 93 -94 232 -128 398 -294 509 -509 98
-190 133 -350 124 -565 -6 -150 -36 -285 -88 -398 l-32 -69 19 -62 c27 -94 25
-243 -4 -330 -61 -176 -192 -296 -377 -343 -65 -17 -218 -20 -279 -5 -32 7
-53 4 -110 -15 -221 -74 -549 -55 -789 45 -272 113 -520 349 -553 528 -4 19
-26 62 -49 96 -190 273 -238 658 -124 982 37 106 56 145 120 245 l49 76 0 183
c0 110 5 198 12 221 23 77 109 153 188 167 70 12 1090 6 1136 -7z"/>
<path d="M2345 3389 c-38 -3 139 -6 395 -7 461 -2 466 -2 510 -24 27 -14 58
-42 80 -73 l35 -49 3 -637 c2 -604 2 -638 -15 -642 -10 -3 0 -5 22 -4 l40 2 0
607 c0 391 -4 611 -10 617 -7 7 -9 -36 -7 -127 2 -75 1 -135 -2 -132 -2 3 -7
68 -9 145 -6 186 -31 247 -125 302 l-47 28 -400 0 c-220 0 -431 -3 -470 -6z
m1055 -636 c0 -86 -3 -154 -6 -151 -3 4 -6 66 -6 140 0 158 1 168 7 168 3 0 5
-70 5 -157z m0 -475 c0 -171 -2 -309 -5 -306 -9 9 -9 618 0 618 2 0 5 -140 5
-312z"/>
<path d="M2228 3383 c7 -3 16 -2 19 1 4 3 -2 6 -13 5 -11 0 -14 -3 -6 -6z"/>
<path d="M2058 3350 c-41 -22 -69 -58 -99 -124 -19 -44 -20 -68 -20 -928 0
-654 4 -893 12 -918 7 -19 25 -54 41 -77 15 -23 28 -45 28 -50 0 -29 114 -117
167 -128 l28 -6 -30 17 c-81 44 -127 79 -140 105 -13 24 -15 166 -15 983 0
606 4 964 10 981 5 14 22 37 36 50 26 24 32 25 170 25 124 0 144 -2 144 -16 0
-8 13 -29 29 -45 l29 -29 204 0 c223 0 233 2 263 61 l16 29 129 0 c129 0 130
0 162 -29 33 -29 33 -29 38 -145 l5 -116 -70 0 c-46 1 -77 6 -89 15 -17 13
-89 15 -461 15 l-442 0 -21 -23 -22 -23 0 -572 c0 -329 4 -572 9 -572 13 0 20
25 14 49 -4 17 -1 21 18 22 22 1 22 2 4 7 -18 6 -20 17 -22 97 -1 50 -5 99 -7
111 -3 11 1 29 8 40 13 17 28 19 179 19 220 0 207 13 207 -201 l0 -163 -27
-21 c-26 -20 -37 -21 -186 -18 -155 3 -159 3 -178 28 -19 25 -19 24 -17 -285
3 -338 4 -342 63 -381 45 -30 196 -44 463 -44 l253 0 51 -52 c46 -49 48 -50
18 -11 -50 67 -9 55 75 -22 l69 -64 -339 -1 c-186 0 -341 -3 -344 -6 -3 -3
159 -4 359 -4 244 1 374 -2 393 -9 48 -18 45 -12 -6 14 -58 30 -163 109 -180
136 -8 13 -23 19 -47 19 -32 0 -39 5 -67 53 -17 28 -34 62 -38 75 -6 20 -13
22 -70 22 -57 0 -66 3 -84 26 -19 24 -21 40 -21 173 0 187 2 191 101 191 68 0
70 -1 65 -22 -3 -13 -3 -17 0 -10 3 6 14 12 23 12 17 0 17 -4 5 -57 -23 -100
-24 -115 -12 -190 5 -40 7 -80 4 -90 -14 -36 -30 19 -36 127 l-7 105 -1 -95
c-2 -111 16 -163 58 -168 20 -2 33 -17 59 -67 18 -36 37 -65 42 -65 12 0 11
17 -1 25 -5 3 -20 28 -31 56 -12 27 -26 49 -31 49 -17 0 -37 65 -43 141 -8 90
14 211 45 244 28 30 90 129 84 134 -7 8 -51 -49 -70 -91 -15 -33 -22 -38 -51
-38 -18 0 -33 2 -33 5 0 14 41 83 65 108 19 19 36 27 61 27 29 0 35 3 30 16
-3 8 -2 13 2 10 4 -2 26 11 47 29 l40 34 -90 -44 c-87 -44 -93 -45 -183 -45
-85 0 -95 2 -117 25 -24 24 -25 28 -25 180 0 153 0 156 25 181 l25 25 171 -3
c220 -4 212 4 207 -183 l-3 -130 67 33 68 33 -6 507 c-6 464 -5 510 10 547 23
53 23 183 0 231 -18 39 -67 83 -92 85 -201 12 -274 1 -288 -43 -13 -44 -43
-50 -238 -50 -199 0 -216 4 -241 52 -22 42 -49 53 -112 46 -29 -3 -53 -4 -53
-1 0 3 7 20 15 38 15 30 15 31 0 12 -9 -11 -19 -25 -23 -32 -4 -6 -38 -14 -75
-17 -76 -6 -114 -28 -141 -84 -15 -30 -17 -124 -17 -968 0 -514 3 -939 6 -944
3 -6 0 -7 -8 -4 -8 3 -23 24 -33 47 -18 39 -19 83 -19 947 l0 905 22 40 c24
45 64 85 108 108 17 9 26 16 20 16 -5 0 -27 -9 -47 -19z m314 -353 c6 -9 8 -9
8 1 0 9 75 12 343 12 302 -1 346 -3 377 -18 l35 -17 3 -160 c1 -88 0 -170 -3
-182 -13 -54 0 -53 -484 -53 -347 0 -451 3 -458 13 -7 9 -10 288 -4 378 0 9
16 21 34 26 45 14 140 14 149 0z m858 -44 c0 -5 3 -233 6 -508 l6 -500 -41
-17 -41 -17 0 116 c0 113 0 115 -29 144 l-29 29 -177 0 -177 0 -29 -29 -29
-29 0 -166 0 -166 29 -32 c27 -30 34 -33 105 -36 42 -2 76 -6 76 -8 0 -1 -9
-19 -21 -38 -20 -34 -24 -36 -76 -36 -47 0 -59 -4 -84 -30 l-30 -30 3 -168 c4
-202 8 -210 106 -219 59 -5 59 -6 81 -50 l22 -45 -298 4 c-310 5 -335 8 -380
50 -43 40 -32 43 146 41 l169 -3 31 35 31 36 0 160 0 161 -29 29 -29 29 -171
0 -171 0 0 43 0 42 155 -3 c236 -5 245 4 245 233 0 160 -10 198 -56 215 -14 6
-97 10 -185 10 l-159 0 0 29 0 29 435 -6 c464 -5 467 -5 507 43 11 13 18 37
18 68 0 41 -5 53 -29 78 l-30 29 -450 -2 -451 -3 0 43 0 42 451 0 451 0 29 29
29 29 0 176 0 176 35 0 c19 0 35 -3 35 -7z m-113 -535 c29 -27 31 -80 3 -108
-19 -19 -33 -20 -468 -20 -335 0 -451 3 -460 12 -7 7 -12 35 -12 63 0 28 5 56
12 63 9 9 124 12 457 12 443 0 445 0 468 -22z m-590 -787 c6 -1 19 -8 27 -17
13 -13 16 -43 16 -175 0 -211 12 -199 -198 -199 -197 0 -196 -1 -193 103 l1
47 188 2 c103 1 145 4 95 5 l-93 4 -2 62 -2 62 -3 -62 -4 -63 -87 0 -87 0 1
70 c2 39 -1 84 -6 100 -9 33 4 56 35 62 15 2 255 2 312 -1z"/>
<path d="M2362 2855 c0 -16 2 -22 5 -12 2 9 2 23 0 30 -3 6 -5 -1 -5 -18z"/>
<path d="M2551 2842 c-120 -3 -141 -10 -141 -46 0 -44 12 -46 241 -46 194 0
218 2 230 18 12 15 12 16 -2 4 -13 -9 -69 -12 -229 -10 -183 3 -214 5 -223 19
-6 9 -7 24 -4 33 6 14 32 16 225 16 161 0 221 -3 231 -12 11 -11 13 -10 9 2
-5 18 -148 27 -337 22z"/>
<path d="M2362 2710 c0 -19 2 -27 5 -17 2 9 2 25 0 35 -3 9 -5 1 -5 -18z"/>
<path d="M2426 2397 c15 -31 15 -36 -1 -68 l-18 -34 22 19 c25 23 28 77 5 100
-23 24 -25 20 -8 -17z"/>
<path d="M2607 2363 c-3 -5 -1 -17 4 -28 7 -17 8 -17 8 8 1 27 -4 34 -12 20z"/>
<path d="M2364 1586 c-3 -8 -4 -23 -2 -33 3 -11 6 -6 9 15 6 34 2 42 -7 18z"/>
<path d="M2361 1333 c0 -28 2 -54 7 -57 4 -2 6 14 4 37 -5 68 -10 76 -11 20z"/>
<path d="M3164 3343 c3 -3 24 -15 48 -27 24 -12 55 -40 73 -64 l30 -44 2 -628
c3 -627 3 -629 -18 -635 -27 -9 -19 -16 9 -8 l22 5 0 616 c0 456 -3 625 -12
656 -16 51 -71 108 -122 123 -21 6 -36 9 -32 6z"/>
<path d="M1890 2165 c0 -362 3 -656 6 -652 5 5 17 142 14 172 0 6 -2 261 -4
568 -2 306 -6 560 -10 564 -3 3 -6 -290 -6 -652z"/>
<path d="M1833 2595 c0 -27 2 -38 4 -22 2 15 2 37 0 50 -2 12 -4 0 -4 -28z"/>
<path d="M1825 2490 c3 -5 8 -10 11 -10 2 0 4 5 4 10 0 6 -5 10 -11 10 -5 0
-7 -4 -4 -10z"/>
<path d="M2890 1945 l0 -34 -77 -4 -78 -3 85 -2 86 -2 -4 40 c-5 49 -12 52
-12 5z"/>
<path d="M3458 1963 c12 -2 32 -2 45 0 12 2 2 4 -23 4 -25 0 -35 -2 -22 -4z"/>
<path d="M3710 1916 c0 -3 14 -12 30 -21 17 -9 30 -13 30 -11 0 3 -13 12 -30
21 -16 9 -30 13 -30 11z"/>
<path d="M2968 1903 c29 -2 74 -2 100 0 26 2 2 3 -53 3 -55 0 -76 -1 -47 -3z"/>
<path d="M2893 1837 c-1 -30 -1 -31 8 -8 5 14 6 28 2 32 -4 4 -9 -6 -10 -24z"/>
<path d="M3820 1846 c0 -2 8 -10 18 -17 15 -13 16 -12 3 4 -13 16 -21 21 -21
13z"/>
<path d="M3909 1753 c19 -24 36 -43 39 -43 2 0 -1 6 -7 13 -6 8 -9 16 -7 18 2
2 -11 15 -28 29 l-31 25 34 -42z"/>
<path d="M3087 1760 c-19 -15 -27 -30 -27 -53 0 -41 8 -51 45 -56 44 -5 62
-17 68 -48 3 -16 18 -68 32 -118 15 -49 28 -99 29 -110 2 -11 8 -33 14 -48 7
-16 12 -35 12 -43 0 -27 39 -116 57 -130 10 -7 26 -14 36 -14 9 0 17 -5 17
-10 0 -17 47 -60 65 -60 18 0 65 43 65 60 0 7 -7 5 -16 -4 -20 -20 -59 -42
-50 -28 3 5 -1 16 -10 23 -11 9 -14 22 -10 41 6 33 -8 37 -26 8 -17 -27 -42
-25 -65 4 -11 13 -45 120 -77 238 -31 117 -64 223 -72 236 -10 14 -24 22 -44
22 -21 0 -35 8 -46 25 -16 24 -16 27 1 45 24 26 75 26 109 -1 41 -32 58 -77
117 -294 56 -212 73 -245 124 -245 15 0 36 -11 49 -25 19 -21 33 -25 76 -25
44 0 55 4 72 25 28 36 108 29 108 -10 0 -18 21 -20 38 -3 18 18 14 56 -7 68
-11 6 -91 10 -189 10 -148 0 -171 2 -184 18 -8 9 -37 105 -63 212 -68 281 -65
276 -133 291 -20 4 -48 11 -62 14 -18 5 -34 0 -53 -15z m528 -570 c-22 -25
-86 -27 -109 -4 -9 8 -16 17 -16 20 0 2 32 4 72 4 70 0 71 0 53 -20z m140 10
c3 -5 1 -10 -4 -10 -6 0 -11 5 -11 10 0 6 2 10 4 10 3 0 8 -4 11 -10z m-341
-100 c-6 -5 -24 21 -24 34 0 6 6 1 14 -10 8 -10 12 -21 10 -24z"/>
<path d="M3363 1593 c26 -2 47 -5 47 -6 0 -1 9 -27 20 -57 16 -45 18 -48 14
-17 l-6 37 176 0 c97 0 176 -2 176 -4 0 -12 -49 -208 -53 -212 -2 -2 -61 -6
-131 -8 -69 -1 -129 -6 -133 -9 -3 -4 14 -7 38 -8 95 -1 211 3 224 7 11 5 65
198 65 234 0 6 -71 10 -185 10 -178 0 -185 1 -185 20 0 18 -6 20 -57 18 -57
-2 -57 -2 -10 -5z"/>
<path d="M3468 1593 c6 -2 18 -2 25 0 6 3 1 5 -13 5 -14 0 -19 -2 -12 -5z"/>
<path d="M3723 1593 c9 -2 23 -2 30 0 6 3 -1 5 -18 5 -16 0 -22 -2 -12 -5z"/>
<path d="M2862 1560 c0 -14 2 -19 5 -12 2 6 2 18 0 25 -3 6 -5 1 -5 -13z"/>
<path d="M3171 1504 c0 -11 3 -14 6 -6 3 7 2 16 -1 19 -3 4 -6 -2 -5 -13z"/>
<path d="M3451 1434 c0 -11 3 -14 6 -6 3 7 2 16 -1 19 -3 4 -6 -2 -5 -13z"/>
<path d="M2778 1393 c12 -2 30 -2 40 0 9 3 -1 5 -23 4 -22 0 -30 -2 -17 -4z"/>
<path d="M3460 1384 c0 -10 5 -26 10 -34 8 -11 9 -7 4 15 -8 37 -14 45 -14 19z"/>
<path d="M3413 1313 c9 -2 25 -2 35 0 9 3 1 5 -18 5 -19 0 -27 -2 -17 -5z"/>
<path d="M3621 1123 c-1 -25 33 -53 64 -53 23 0 65 38 65 58 0 19 -18 14 -25
-7 -9 -28 -51 -33 -64 -7 -7 13 -10 14 -7 4 8 -26 -13 -22 -24 5 l-9 22 0 -22z"/>
<path d="M3570 1101 c0 -9 49 -56 53 -50 1 2 -10 16 -25 31 -15 15 -28 23 -28
19z"/>
<path d="M2265 1070 c10 -11 20 -18 22 -16 2 2 26 -5 54 -15 45 -17 76 -19
342 -17 l292 2 -305 6 -305 5 -59 28 c-52 24 -57 25 -41 7z"/>
<path d="M3387 1059 c7 -7 15 -10 18 -7 3 3 -2 9 -12 12 -14 6 -15 5 -6 -5z"/>
<path d="M2390 979 c0 -4 20 -7 45 -6 25 1 45 5 45 9 0 4 -20 7 -45 6 -25 0
-45 -4 -45 -9z"/>
<path d="M2490 979 c0 -3 88 -6 195 -6 107 0 195 4 195 8 0 5 -88 8 -195 6
-107 -1 -195 -5 -195 -8z"/>
<path d="M2933 984 c9 -10 88 -14 83 -5 -3 4 -24 8 -47 9 -23 1 -39 -1 -36 -4z"/>
</g>
</svg>
